<?xml version="1.0" encoding="UTF-8" standalone="no"?>
<!-- Created with Inkscape (http://www.inkscape.org/) -->

<svg
   xmlns:dc="http://purl.org/dc/elements/1.1/"
   xmlns:cc="http://creativecommons.org/ns#"
   xmlns:rdf="http://www.w3.org/1999/02/22-rdf-syntax-ns#"
   xmlns:svg="http://www.w3.org/2000/svg"
   xmlns="http://www.w3.org/2000/svg"
   xmlns:sodipodi="http://sodipodi.sourceforge.net/DTD/sodipodi-0.dtd"
   xmlns:inkscape="http://www.inkscape.org/namespaces/inkscape"
   id="svg2"
   inkscape:version="0.92.2 5c3e80d, 2017-08-06"
   viewBox="0 0 636.81 614.41"
   version="1.1"
   sodipodi:docname="mosquito-plane.svg">
  <defs
     id="defs77" />
  <sodipodi:namedview
     id="base"
     bordercolor="#666666"
     inkscape:pageshadow="2"
     inkscape:window-y="0"
     pagecolor="#ffffff"
     inkscape:zoom="0.6180909"
     inkscape:window-width="3003"
     inkscape:window-maximized="0"
     inkscape:window-x="0"
     showgrid="false"
     borderopacity="1.0"
     inkscape:current-layer="layer1"
     inkscape:cx="445.81217"
     inkscape:cy="280.43069"
     inkscape:window-height="1652"
     inkscape:pageopacity="0.0"
     inkscape:document-units="px" />
  <g
     id="layer1"
     inkscape:label="Calque 1"
     inkscape:groupmode="layer"
     transform="translate(-71.206 -161.47)">
    <path
       id="path2996"
       d="m 513.43207,768.50036 c -8.29326,-2.48853 -10.88338,-12.74295 -5.5833,-22.33068 3.62681,-9.53733 4.25375,-11.93632 7.64728,-17.64911 2.81841,-4.62746 15.68861,-29.37451 20.04158,-38.53744 3.99399,-8.40679 7.23046,-13.56911 17.09625,-27.27102 7.33222,-10.18343 7.60536,-10.74494 5.98995,-12.31523 C 555.93423,647.7813 518.34,615.43263 509.92142,608.49036 492.56606,594.1742 441.70601,548.66715 423.89839,531.519 l -11.48544,-11.06134 -28.5261,14.70386 c -15.68954,8.08687 -28.80688,15.24877 -29.14984,15.91477 -0.34338,0.66639 -0.91925,3.74437 -1.2797,6.83992 -0.36046,3.09556 0.16415,5.11662 -1.14798,6.38281 -1.31213,1.26619 0.22115,0.50701 -2.62101,2.10709 -2.84225,1.60007 -23.11787,-3.2101 -27.61405,0.25629 -1.60768,1.44725 -18.33243,10.12386 -56.99756,29.56982 -10.67892,5.371 -19.44611,10.31428 -19.48191,10.98614 0.29168,2.1983 0.0585,1.89938 -1.97316,1.22068 -0.99901,-0.33368 -20.23472,9.49945 -42.63463,21.11 -47.00457,24.36385 -54.85311,28.04836 -65.34924,30.6782 -22.87571,5.73154 -41.857312,-2.35748 -41.780994,-17.80537 0.04014,-8.1399 2.550163,-11.61699 26.643584,-36.91344 50.19486,-52.69931 47.37108,-49.51674 45.66098,-51.47472 -4.579,-5.24415 -9.05456,-20.43716 -7.37169,-25.02497 2.724,-7.42585 13.50364,-8.40474 25.81539,-2.34449 l 6.93281,3.41234 5.56126,-6.17577 c 3.05867,-3.39672 12.98071,-14.08472 22.0494,-23.75058 l 16.48854,-17.5749 -15.47755,-16.90108 c -21.67536,-23.6705 -28.35274,-31.0903 -31.81062,-35.34804 -4.87882,-6.00839 -10.78444,-19.5358 -11.34976,-25.99663 -0.46881,-5.3585 -0.36115,-5.72822 2.16781,-7.44577 1.65102,-1.12127 4.13476,-1.74812 6.5435,-1.65154 4.80825,0.19287 18.27306,5.4753 21.41813,8.40269 1.28215,1.19344 3.3452,2.77945 4.58457,3.52465 1.23928,0.74512 3.94924,2.84361 6.02208,4.6632 7.74744,6.80116 28.34143,25.10505 30.33042,26.95853 2.05664,1.91589 2.07426,1.91511 4.64977,-0.18459 1.42187,-1.15926 8.36213,-7.91305 15.4229,-15.00854 7.06058,-7.09539 15.0545,-15.02221 17.76521,-17.61494 l 4.92781,-4.71418 -7.86465,-8.56557 c -13.93234,-15.17455 -22.86535,-29.14111 -28.22083,-44.12231 -2.57673,-7.20857 -2.77035,-8.53618 -2.02799,-13.90308 0.81983,-5.92686 0.82491,-5.93438 4.58956,-6.77977 14.19427,-3.18716 38.92706,8.91498 62.91647,30.78561 l 6.38454,5.82061 15.64526,-15.47728 c 8.60476,-8.51246 17.28564,-16.94015 19.29065,-18.72723 2.00491,-1.78747 3.64528,-3.77591 3.64528,-4.41887 0,-0.64296 -3.22129,-4.45383 -7.15847,-8.4687 -8.79857,-8.97212 -24.24851,-27.07962 -28.72491,-33.66643 -3.74309,-5.50781 -5.0079,-8.26578 -7.55976,-16.48409 -3.27104,-10.53498 -2.05795,-14.34351 4.98566,-15.65013 5.56352,-1.03241 20.23285,4.77023 26.67939,10.55353 1.55463,1.39461 3.14997,2.53619 3.54513,2.53687 1.02672,0.002 27.92215,24.06112 48.88991,43.7356 l 2.49825,2.3441 3.15496,-3.4227 c 1.73516,-1.88249 8.24285,-8.13375 14.46092,-13.89137 6.21853,-5.75791 13.42637,-12.5535 16.01743,-15.10228 5.98722,-5.88838 12.39655,-11.43438 13.75803,-11.90508 0.63171,-0.21823 -0.0891,-2.11969 -1.79914,-4.74581 -5.66762,-8.70386 -8.26895,-19.63932 -5.80622,-24.40877 1.32455,-2.56519 5.82281,-4.82863 9.59632,-4.82863 3.90091,0 11.45812,2.82456 18.36163,6.86258 4.54142,2.6564 5.39995,2.87964 6.09869,1.58552 0.68401,-1.26678 25.73436,-25.33258 46.4741,-44.64769 3.10927,-2.89565 9.13927,-8.64009 13.4,-12.76541 14.59753,-14.13355 23.82828,-17.27412 32.49937,-11.05841 6.03753,4.32864 10.65724,14.34742 10.56208,22.90294 -0.12579,11.25176 -2.81558,19.56022 -13.12299,40.5374 -12.09693,24.61873 -33.90513,68.08186 -36.75812,73.25756 -1.35649,2.46109 -1.98823,4.86662 -1.6953,6.45487 0.35147,1.90563 0.0265,2.65113 -1.314,3.0144 -1.20055,0.32541 -5.57227,8.08737 -13.41507,23.81796 -18.03657,36.17713 -21.90619,43.72192 -23.27521,45.38498 -0.69863,0.84794 -1.28375,2.16627 -1.30024,2.92964 -0.0165,0.76335 -0.65247,2.24097 -1.4133,3.28354 -1.53748,2.1068 -1.73704,8.47993 -0.47573,15.19408 0.32058,3.88831 0.29039,5.93486 0.57271,9.36497 0.28232,3.43012 0.0581,4.56096 -1.82891,5.28322 -1.88704,0.72225 -5.2735,2.27467 -7.86861,2.56792 -3.60185,0.3896 -6.35798,1.24041 -7.14895,2.2068 -0.70805,0.86503 -7.13002,13.21853 -14.27059,27.45169 -7.14104,14.23316 -13.54792,26.54642 -14.23667,27.36379 -1.08061,1.28084 1.10473,4.03617 15.89306,20.03775 15.96278,17.27315 28.96234,31.83345 61.04808,68.37776 16.0457,18.27508 36.38689,41.94363 39.4858,45.94649 1.29336,1.67038 4.9425,6.11474 8.10906,9.87679 l 5.75741,6.83943 13.08625,-9.24799 c 7.19766,-5.08643 17.32615,-11.85917 22.50826,-15.05052 11.63807,-7.16697 37.77098,-20.47134 44.75458,-22.7838 2.85016,-0.94386 8.70877,-3.48119 13.01935,-5.63858 7.27935,-3.64339 8.09134,-3.84349 11.41477,-2.81157 7.52942,2.33805 11.91509,8.3314 11.11422,15.1892 -1.69663,14.53784 -10.80706,27.84132 -46.87078,68.44025 -8.11066,9.13071 -16.921,19.17741 -19.57895,22.32677 l -4.83199,5.72549 1.84229,3.74271 c 2.32187,4.71711 1.13846,5.66749 -4.04214,3.24614 -2.86552,-1.33924 -3.94905,-1.49236 -4.23661,-0.59833 -0.21247,0.66065 -0.78863,1.20115 -1.28045,1.20115 -0.49174,0 -5.2263,3.89193 -10.52157,8.64868 -48.22566,43.32447 -66.55997,57.04982 -82.22784,61.55854 -4.2499,1.22293 -4.53934,1.22322 -8.58572,0.009 z"
       sodipodi:nodetypes="cccssssscssszzcscsssssssscsscsssssssssssscssssscsssssssscscssssssssssssssssssscsczzcssssssscsssssssscsscssscc"
       style="fill:#000000;stroke-width:0.95922023"
       inkscape:connector-curvature="0" />
  </g>
  <metadata
     id="metadata6">
    <rdf:RDF>
      <cc:Work>
        <dc:format>image/svg+xml</dc:format>
        <dc:type
           rdf:resource="http://purl.org/dc/dcmitype/StillImage" />
        <cc:license
           rdf:resource="http://creativecommons.org/licenses/publicdomain/" />
        <dc:publisher>
          <cc:Agent
             rdf:about="http://openclipart.org/">
            <dc:title>Openclipart</dc:title>
          </cc:Agent>
        </dc:publisher>
      </cc:Work>
      <cc:License
         rdf:about="http://creativecommons.org/licenses/publicdomain/">
        <cc:permits
           rdf:resource="http://creativecommons.org/ns#Reproduction" />
        <cc:permits
           rdf:resource="http://creativecommons.org/ns#Distribution" />
        <cc:permits
           rdf:resource="http://creativecommons.org/ns#DerivativeWorks" />
      </cc:License>
    </rdf:RDF>
  </metadata>
</svg>
